<svg style="position: absolute; width: 0; height: 0;" width="0" height="0" version="1.1" xmlns="http://www.w3.org/2000/svg" xmlns:xlink="http://www.w3.org/1999/xlink">
<defs>
<symbol id="icon-file" viewBox="0 0 904 1024">
<title>file</title>
<path class="path1" d="M783.059 1024h-662.588c-66.259 0-120.471-54.212-120.471-120.471v-783.059c0-66.259 54.212-120.471 120.471-120.471h421.647l361.412 361.412v542.118c0 66.259-54.212 120.471-120.471 120.471zM722.824 481.882h-240.941c-36.141 0-60.235-24.094-60.235-60.235v-240.941h-240.941v662.588h542.118v-361.412z"></path>
</symbol>
<symbol id="icon-loc" viewBox="0 0 796 1024">
<title>loc</title>
<path fill="#1a1a1a" class="path1" d="M398.222 265.481c72.059 0 132.741 60.681 132.741 132.741s-60.681 132.741-132.741 132.741-132.741-60.681-132.741-132.741 60.681-132.741 132.741-132.741z"></path>
<path fill="#a0c627" class="path2" d="M455.111 792.652v174.459c0 30.341-26.548 56.889-56.889 56.889s-56.889-26.548-56.889-56.889v-174.459c-193.422-26.548-341.333-193.422-341.333-394.43 0-219.97 178.252-398.222 398.222-398.222s398.222 178.252 398.222 398.222c0 201.007-147.911 367.881-341.333 394.43zM398.222 113.778c-155.496 0-284.444 128.948-284.444 284.444s128.948 284.444 284.444 284.444 284.444-128.948 284.444-284.444-128.948-284.444-284.444-284.444z"></path>
</symbol>
<symbol id="icon-phone" viewBox="0 0 796 1024">
<title>phone</title>
<path fill="#1a1a1a" class="path1" d="M398.222 227.556c94.815 0 170.667 75.852 170.667 170.667s-75.852 170.667-170.667 170.667-170.667-75.852-170.667-170.667 75.852-170.667 170.667-170.667z"></path>
<path fill="#95c00e" class="path2" d="M796.444 625.778c0 219.97-178.252 398.222-398.222 398.222s-398.222-178.252-398.222-398.222v-227.556c0-219.97 178.252-398.222 398.222-398.222 109.985 0 212.385 45.511 284.444 121.363v-64.474c0-30.341 26.548-56.889 56.889-56.889s56.889 26.548 56.889 56.889v568.889zM682.667 398.222c0-155.496-128.948-284.444-284.444-284.444s-284.444 128.948-284.444 284.444v227.556c0 155.496 128.948 284.444 284.444 284.444s284.444-128.948 284.444-284.444v-227.556z"></path>
</symbol>
<symbol id="icon-login_m" viewBox="0 0 945 1024">
<title>login_m</title>
<path class="path1" d="M787.692 1024h-630.154c-86.646 0-157.538-70.892-157.538-157.538v-315.077c0-86.646 70.892-157.538 157.538-157.538h472.615v-118.154c0-86.646-70.892-157.538-157.538-157.538s-157.538 70.892-157.538 157.538h-118.154c0-153.6 122.092-275.692 275.692-275.692s275.692 122.092 275.692 275.692v118.154h39.385c86.646 0 157.538 70.892 157.538 157.538v315.077c0 86.646-70.892 157.538-157.538 157.538zM827.077 590.769c0-43.323-35.446-78.769-78.769-78.769h-551.385c-43.323 0-78.769 35.446-78.769 78.769v236.308c0 43.323 35.446 78.769 78.769 78.769h551.385c43.323 0 78.769-35.446 78.769-78.769v-236.308zM472.615 787.692c-43.323 0-78.769-35.446-78.769-78.769s35.446-78.769 78.769-78.769 78.769 35.446 78.769 78.769c0 43.323-35.446 78.769-78.769 78.769z"></path>
</symbol>
<symbol id="icon-arrow_left" viewBox="0 0 585 1024">
<title>arrow_left</title>
<path class="path1" d="M565.638 121.905l-390.095 390.095 390.095 390.095c29.257 29.257 29.257 73.143 0 102.4s-73.143 29.257-102.4 0l-429.105-429.105c-4.876-4.876-9.752-4.876-14.629-9.752-19.505-24.381-24.381-53.638-14.629-82.895 4.876-9.752 9.752-14.629 14.629-24.381 0 0 0 0 4.876 0l438.857-438.857c29.257-29.257 73.143-29.257 102.4 0 24.381 29.257 24.381 73.143 0 102.4z"></path>
</symbol>
<symbol id="icon-arrow_right" viewBox="0 0 585 1024">
<title>arrow_right</title>
<path class="path1" d="M24.381 897.219l390.095-390.095-390.095-390.095c-29.257-29.257-29.257-73.143 0-102.4s73.143-29.257 102.4 0l429.105 429.105c4.876 4.876 9.752 4.876 14.629 9.752 19.505 19.505 24.381 53.638 14.629 78.019-4.876 9.752-9.752 14.629-14.629 24.381 0 0 0 0-4.876 0l-438.857 438.857c-29.257 29.257-73.143 29.257-102.4 0-29.257-24.381-29.257-68.267 0-97.524z"></path>
</symbol>
<symbol id="icon-author" viewBox="0 0 951 1024">
<title>author</title>
<path class="path1" d="M841.143 1024h-731.429c-58.514 0-109.714-51.2-109.714-109.714s51.2-109.714 109.714-109.714h731.429c58.514 0 109.714 51.2 109.714 109.714s-51.2 109.714-109.714 109.714zM475.429 658.286c-182.857 0-329.143-146.286-329.143-329.143s146.286-329.143 329.143-329.143c182.857 0 329.143 146.286 329.143 329.143s-146.286 329.143-329.143 329.143zM475.429 219.429c-58.514 0-109.714 51.2-109.714 109.714s51.2 109.714 109.714 109.714c58.514 0 109.714-51.2 109.714-109.714s-51.2-109.714-109.714-109.714z"></path>
</symbol>
<symbol id="icon-ca" viewBox="0 0 1829 1024">
<title>ca</title>
<path class="path1" d="M694.857 512c0-36.571 0-65.829 7.314-102.4s14.629-65.829 21.943-102.4c29.257-109.714 102.4-190.171 190.171-241.371 73.143-43.886 153.6-65.829 226.743-65.829s160.914 21.943 226.743 65.829c87.771 51.2 153.6 131.657 190.171 241.371 21.943 65.829 29.257 138.971 29.257 204.8 0 7.314 0 7.314 0 14.629 0 43.886 7.314 87.771 21.943 138.971s43.886 87.771 80.457 117.029c43.886 29.257 87.771 43.886 138.971 43.886l-102.4 182.857c-58.514-14.629-109.714-36.571-160.914-73.143-29.257-21.943-58.514-51.2-80.457-80.457-7.314 7.314-14.629 14.629-14.629 21.943-43.886 51.2-95.086 87.771-153.6 109.714-65.829 29.257-131.657 36.571-197.486 36.571s-131.657-21.943-197.486-51.2l95.086-175.543c29.257 14.629 65.829 29.257 102.4 29.257s73.143-7.314 109.714-21.943c29.257-14.629 58.514-29.257 80.457-58.514 21.943-21.943 36.571-51.2 43.886-87.771 14.629-43.886 21.943-95.086 21.943-138.971 0-7.314 0-7.314 0-14.629v0c0-51.2-7.314-102.4-21.943-146.286-14.629-58.514-51.2-102.4-95.086-131.657-36.571-21.943-80.457-36.571-124.343-36.571s-87.771 14.629-124.343 36.571c-43.886 29.257-80.457 73.143-95.086 131.657-7.314 21.943-14.629 51.2-14.629 73.143-7.314 29.257-7.314 51.2-7.314 73.143v0 0c0 36.571 0 73.143-7.314 102.4-7.314 36.571-14.629 65.829-21.943 102.4-29.257 109.714-102.4 197.486-190.171 248.686-73.143 43.886-146.286 58.514-226.743 58.514s-160.914-14.629-226.743-51.2c-87.771-51.2-153.6-131.657-190.171-248.686-21.943-65.829-29.257-138.971-29.257-204.8s7.314-138.971 29.257-204.8c29.257-95.086 80.457-168.229 153.6-219.429 73.143-58.514 168.229-87.771 263.314-87.771 36.571 0 73.143 7.314 109.714 14.629s73.143 21.943 102.4 43.886l-95.086 168.229c-14.629-7.314-36.571-14.629-58.514-21.943-14.629-7.314-36.571-7.314-58.514-7.314-51.2 0-102.4 14.629-138.971 43.886s-65.829 65.829-80.457 124.343c-14.629 43.886-21.943 95.086-21.943 146.286s7.314 102.4 21.943 153.6c14.629 58.514 51.2 102.4 95.086 131.657 36.571 21.943 80.457 36.571 124.343 36.571s87.771-14.629 124.343-36.571c43.886-29.257 80.457-65.829 95.086-131.657 7.314-29.257 14.629-51.2 14.629-73.143 7.314-29.257 14.629-58.514 14.629-80.457v0 0z"></path>
</symbol>
<symbol id="icon-cat" viewBox="0 0 1934 1024">
<title>cat</title>
<path class="path1" d="M1763.556 682.667c-91.022 0-170.667-79.644-170.667-170.667s79.644-170.667 170.667-170.667c91.022 0 170.667 79.644 170.667 170.667s-79.644 170.667-170.667 170.667zM1194.667 682.667h-204.8c-68.267 193.422-250.311 341.333-477.867 341.333-284.444 0-512-227.556-512-512s227.556-512 512-512c227.556 0 409.6 147.911 477.867 341.333h204.8c91.022 0 170.667 79.644 170.667 170.667s-79.644 170.667-170.667 170.667zM512 341.333c-91.022 0-170.667 79.644-170.667 170.667s79.644 170.667 170.667 170.667c91.022 0 170.667-79.644 170.667-170.667s-79.644-170.667-170.667-170.667z"></path>
</symbol>
<symbol id="icon-compl" viewBox="0 0 1923 1024">
<title>compl</title>
<path class="path1" d="M1911.467 910.222c-22.756 68.267-79.644 113.778-159.289 113.778s-136.533-45.511-159.289-113.778c0 0-56.889-568.889-637.156-568.889-568.889 0-637.156 568.889-637.156 568.889-22.756 68.267-79.644 113.778-159.289 113.778-261.689 0-125.156-295.822-147.911-250.311 91.022-443.733 477.867-773.689 944.356-773.689s853.333 329.956 944.356 773.689c34.133 79.644 11.378 136.533 11.378 136.533z"></path>
</symbol>
<symbol id="icon-coms" viewBox="0 0 1088 1024">
<title>coms</title>
<path class="path1" d="M800 768h-83.2l89.6 89.6c38.4 38.4 38.4 102.4 0 140.8s-102.4 38.4-140.8 0l-249.6-249.6c-38.4-44.8-38.4-108.8 0-147.2 25.6-25.6 64-32 96-19.2v-6.4h288c51.2 0 96-44.8 96-96v-192c0-51.2-44.8-96-96-96h-512c-51.2 0-96 44.8-96 96v192c0 12.8 0 19.2 6.4 32h-12.8c-12.8 38.4-44.8 64-89.6 64s-76.8-25.6-89.6-64v0c-6.4-12.8-6.4-19.2-6.4-32v-192c0-160 128-288 288-288h512c160 0 288 128 288 288v192c0 160-128 288-288 288z"></path>
</symbol>
<symbol id="icon-del" viewBox="0 0 1024 1024">
<title>del</title>
<path class="path1" d="M677.415 512l307.2 307.2c47.262 47.262 47.262 118.154 0 165.415s-118.154 47.262-165.415 0l-307.2-307.2-307.2 307.2c-47.262 47.262-118.154 47.262-165.415 0s-47.262-118.154 0-165.415l307.2-307.2-315.077-307.2c-39.385-47.262-39.385-126.031 0-173.292 47.262-39.385 126.031-39.385 173.292 0l307.2 307.2 307.2-307.2c47.262-47.262 118.154-47.262 165.415 0s47.262 118.154 0 165.415l-307.2 315.077z"></path>
</symbol>
<symbol id="icon-down" viewBox="0 0 597 1024">
<title>down</title>
<path class="path1" d="M11.378 696.889c17.067-17.067 42.667-17.067 59.733 0l184.889 182.044v-836.267c0-22.756 19.911-42.667 42.667-42.667v0c22.756 0 42.667 19.911 42.667 42.667v836.267l184.889-184.889c17.067-17.067 42.667-17.067 59.733 0s17.067 42.667 0 59.733l-250.311 250.311c-2.844 2.844-2.844 5.689-5.689 8.533-8.533 8.533-22.756 14.222-36.978 11.378-2.844 0-5.689 0-5.689 0s-2.844 0-2.844 0c-8.533-2.844-14.222-8.533-17.067-14.222l-253.156-253.156c-17.067-17.067-17.067-45.511-2.844-59.733z"></path>
</symbol>
<symbol id="icon-fav" viewBox="0 0 748 1024">
<title>fav</title>
<path class="path1" d="M748.308 968.862c0 3.938 0 11.815-3.938 15.754 0 0 0 3.938 0 3.938 0 3.938 0 3.938-3.938 7.877 0 3.938-3.938 3.938-7.877 7.877s-3.938 3.938-7.877 7.877-3.938 3.938-7.877 3.938c-3.938 3.938-7.877 3.938-15.754 7.877 0 0-3.938 0-3.938 0-3.938 0-7.877 3.938-11.815 3.938s-3.938 0-3.938 0c-3.938 0-7.877 0-11.815-3.938-3.938 0-7.877 0-7.877-3.938-3.938 0-3.938 0-7.877 0l-279.631-153.6-283.569 149.662c-7.877 7.877-19.692 7.877-31.508 7.877 0 0 0 0 0 0s0 0-3.938 0c-7.877 0-11.815 0-19.692-3.938 0 0-3.938 0-3.938 0-7.877-3.938-11.815-7.877-15.754-11.815 0 0 0 0 0 0-3.938-3.938-7.877-3.938-7.877-7.877s-3.938-3.938-3.938-7.877c0 0 0 0 0 0 0-11.815-3.938-15.754-3.938-23.631 0 0 0-3.938 0-3.938v-547.446c0-35.446 27.569-63.015 59.077-63.015s59.077 27.569 59.077 63.015v456.862l224.492-118.154c3.938 0 7.877-3.938 11.815-3.938s3.938 0 7.877-3.938c3.938 0 7.877 0 11.815 0s7.877 0 11.815 0c3.938 0 3.938 0 7.877 3.938 3.938 0 7.877 0 11.815 3.938l224.492 118.154v-456.862c0-35.446 27.569-63.015 59.077-63.015s59.077 27.569 59.077 59.077v551.385c0 0 0 3.938 0 3.938zM531.692 275.692h-98.462v98.462c0 31.508-27.569 59.077-59.077 59.077-31.508 3.938-59.077-23.631-59.077-59.077v-98.462h-98.462c-31.508 0-59.077-23.631-59.077-59.077 0-31.508 27.569-59.077 59.077-59.077h98.462v-98.462c0-31.508 27.569-59.077 59.077-59.077s59.077 27.569 59.077 59.077v98.462h98.462c31.508 0 59.077 27.569 59.077 59.077 0 35.446-27.569 59.077-59.077 59.077z"></path>
</symbol>
<symbol id="icon-fav_del" viewBox="0 0 748 1024">
<title>fav_del</title>
<path class="path1" d="M748.308 968.862c0 3.938 0 11.815-3.938 15.754 0 0 0 3.938 0 3.938 0 3.938 0 3.938-3.938 7.877 0 3.938-3.938 3.938-7.877 7.877s-3.938 3.938-7.877 7.877-3.938 3.938-7.877 3.938c-3.938 3.938-7.877 3.938-15.754 7.877 0 0-3.938 0-3.938 0-3.938 0-7.877 3.938-11.815 3.938s-3.938 0-3.938 0c-3.938 0-7.877 0-11.815-3.938-3.938 0-7.877 0-7.877-3.938-3.938 0-3.938 0-7.877 0l-279.631-153.6-283.569 149.662c-7.877 7.877-19.692 7.877-31.508 7.877 0 0 0 0 0 0s0 0-3.938 0c-7.877 0-11.815 0-19.692-3.938 0 0-3.938 0-3.938 0-7.877-3.938-11.815-7.877-15.754-11.815 0 0 0 0 0 0-3.938-3.938-7.877-3.938-7.877-7.877s-3.938-3.938-3.938-7.877c0 0 0 0 0 0 0-11.815-3.938-15.754-3.938-23.631 0 0 0-3.938 0-3.938v-547.446c0-35.446 27.569-63.015 59.077-63.015s59.077 27.569 59.077 63.015v456.862l224.492-118.154c3.938 0 7.877-3.938 11.815-3.938s3.938 0 7.877-3.938c3.938 0 7.877 0 11.815 0s7.877 0 11.815 0c3.938 0 3.938 0 7.877 3.938 3.938 0 7.877 0 11.815 3.938l224.492 118.154v-456.862c0-35.446 27.569-63.015 59.077-63.015s59.077 27.569 59.077 59.077v551.385c0 0 0 3.938 0 3.938zM590.769 220.554c0 110.277-86.646 200.862-196.923 212.677-7.877 3.938-11.815 3.938-19.692 3.938s-15.754 0-19.692-3.938c-110.277-11.815-196.923-102.4-196.923-212.677 0 0 0 0 0 0s0 0 0 0 0 0 0 0c0-122.092 98.462-220.554 216.615-220.554s216.615 98.462 216.615 220.554c0-3.938 0-3.938 0 0 0-3.938 0-3.938 0 0 0-3.938 0-3.938 0 0zM374.154 118.154c-55.138 0-98.462 43.323-98.462 98.462s43.323 98.462 98.462 98.462c55.138 0 98.462-43.323 98.462-98.462s-43.323-98.462-98.462-98.462z"></path>
</symbol>
<symbol id="icon-fav_m" viewBox="0 0 768 1024">
<title>fav_m</title>
<path class="path1" d="M768 952.32c0 5.12 0 15.36-5.12 20.48 0 0 0 5.12 0 5.12 0 5.12 0 5.12-5.12 10.24 0 5.12-5.12 5.12-10.24 10.24s-5.12 5.12-10.24 10.24-5.12 5.12-10.24 5.12c-5.12 5.12-10.24 5.12-20.48 10.24 0 0-5.12 0-5.12 0-5.12 0-10.24 5.12-15.36 5.12s-5.12 0-5.12 0c-5.12 0-10.24 0-15.36-5.12-5.12 0-10.24 0-10.24-5.12-5.12 0-5.12 0-10.24 0l-261.12-148.48-266.24 143.36c-10.24 10.24-25.6 10.24-40.96 10.24 0 0 0 0 0 0s0 0-5.12 0c-10.24 0-15.36 0-25.6-5.12 0 0-5.12 0-5.12 0-10.24-5.12-15.36-10.24-20.48-15.36 0 0 0 0 0 0-5.12-5.12-10.24-5.12-10.24-10.24s-5.12-5.12-5.12-10.24c0 0 0 0 0 0 0-15.36-5.12-20.48-5.12-30.72 0 0 0-5.12 0-5.12v-455.68c0-46.080 35.84-81.92 76.8-81.92s76.8 35.84 76.8 81.92v343.040l189.44-102.4c5.12 0 10.24-5.12 15.36-5.12s5.12 0 10.24-5.12c5.12 0 10.24 0 15.36 0s10.24 0 15.36 0c5.12 0 5.12 0 10.24 5.12 5.12 0 10.24 0 15.36 5.12l189.44 102.4v-343.040c0-46.080 35.84-81.92 76.8-81.92s76.8 35.84 76.8 81.92v455.68c0 0 0 5.12 0 5.12zM537.6 307.2h-76.8v76.8c0 40.96-35.84 76.8-76.8 76.8-40.96 5.12-76.8-30.72-76.8-76.8v-76.8h-76.8c-40.96 0-76.8-30.72-76.8-76.8 0-40.96 35.84-76.8 76.8-76.8h76.8v-76.8c0-40.96 35.84-76.8 76.8-76.8s76.8 35.84 76.8 76.8v76.8h76.8c40.96 0 76.8 35.84 76.8 76.8 0 46.080-35.84 76.8-76.8 76.8z"></path>
</symbol>
<symbol id="icon-fav_m_del" viewBox="0 0 768 1024">
<title>fav_m_del</title>
<path class="path1" d="M768 952.32c0 5.12 0 15.36-5.12 20.48 0 0 0 5.12 0 5.12 0 5.12 0 5.12-5.12 10.24 0 5.12-5.12 5.12-10.24 10.24s-5.12 5.12-10.24 10.24-5.12 5.12-10.24 5.12c-5.12 5.12-10.24 5.12-20.48 10.24 0 0-5.12 0-5.12 0-5.12 0-10.24 5.12-15.36 5.12s-5.12 0-5.12 0c-5.12 0-10.24 0-15.36-5.12-5.12 0-10.24 0-10.24-5.12-5.12 0-5.12 0-10.24 0l-261.12-148.48-266.24 143.36c-10.24 10.24-25.6 10.24-40.96 10.24 0 0 0 0 0 0s0 0-5.12 0c-10.24 0-15.36 0-25.6-5.12 0 0-5.12 0-5.12 0-10.24-5.12-15.36-10.24-20.48-15.36 0 0 0 0 0 0-5.12-5.12-10.24-5.12-10.24-10.24s-5.12-5.12-5.12-10.24c0 0 0 0 0 0 0-15.36-5.12-20.48-5.12-30.72 0 0 0-5.12 0-5.12v-455.68c0-46.080 35.84-81.92 76.8-81.92s76.8 35.84 76.8 81.92v343.040l189.44-102.4c5.12 0 10.24-5.12 15.36-5.12s5.12 0 10.24-5.12c5.12 0 10.24 0 15.36 0s10.24 0 15.36 0c5.12 0 5.12 0 10.24 5.12 5.12 0 10.24 0 15.36 5.12l189.44 102.4v-343.040c0-46.080 35.84-81.92 76.8-81.92s76.8 35.84 76.8 81.92v455.68c0 0 0 5.12 0 5.12z"></path>
<path class="path2" d="M384 0c-128 0-230.4 102.4-230.4 230.4s102.4 230.4 230.4 230.4 230.4-102.4 230.4-230.4c0-128-102.4-230.4-230.4-230.4zM384 307.2c-40.96 0-76.8-35.84-76.8-76.8s35.84-76.8 76.8-76.8c40.96 0 76.8 35.84 76.8 76.8s-35.84 76.8-76.8 76.8z"></path>
</symbol>
<symbol id="icon-fb" viewBox="0 0 683 1024">
<title>fb</title>
<path class="path1" d="M443.733 1024v-469.333h204.8l34.133-179.2h-238.933v-119.467c0-51.2 17.067-85.333 119.467-85.333h119.467v-162.133c-25.6 0-93.867-8.533-179.2-8.533-179.2 0-298.667 85.333-298.667 238.933v136.533h-204.8v179.2h204.8v469.333h238.933z"></path>
</symbol>
<symbol id="icon-gp" viewBox="0 0 1536 1024">
<title>gp</title>
<path class="path1" d="M1399.467 588.8c0 51.2 0 93.867 0 145.067-42.667 0-93.867 0-136.533 0 0-51.2 0-93.867 0-145.067-42.667 0-93.867 0-136.533 0 0-51.2 0-93.867 0-145.067 42.667 0 93.867 0 136.533 0 0-51.2 0-93.867 0-145.067 42.667 0 93.867 0 136.533 0 0 51.2 0 93.867 0 145.067 42.667 0 93.867 0 136.533 0 0 51.2 0 93.867 0 145.067-42.667 0-93.867 0-136.533 0zM307.2 989.867c-187.733-76.8-324.267-290.133-307.2-503.467 0-264.533 238.933-494.933 486.4-486.4 119.467-8.533 230.4 51.2 324.267 128-34.133 42.667-76.8 93.867-119.467 136.533-110.933-85.333-273.067-110.933-384-17.067-162.133 110.933-162.133 384-17.067 512 145.067 145.067 426.667 68.267 469.333-145.067-93.867 0-187.733 0-281.6 0 0-59.733 0-119.467 0-170.667 153.6 0 307.2 0 469.333 0 8.533 136.533-8.533 281.6-85.333 392.533-119.467 179.2-358.4 230.4-554.667 153.6z"></path>
</symbol>
<symbol id="icon-left" viewBox="0 0 1755 1024">
<title>left</title>
<path class="path1" d="M1682.286 585.143h-1433.6l316.952 316.952c29.257 29.257 29.257 73.143 0 102.4s-73.143 29.257-102.4 0l-429.105-429.105c-4.876-4.876-9.752-4.876-14.629-9.752-14.629-19.505-19.505-39.010-19.505-63.39 0-4.876 0-9.752 0-9.752s0-4.876 0-4.876c4.876-14.629 14.629-24.381 24.381-29.257l433.981-433.981c29.257-29.257 73.143-29.257 102.4 0s29.257 73.143 0 102.4l-312.076 312.076h1433.6c39.010 0 73.143 34.133 73.143 73.143v0c0 39.010-34.133 73.143-73.143 73.143z"></path>
</symbol>
<symbol id="icon-like" viewBox="0 0 1095 1024">
<title>like</title>
<path class="path1" d="M547.556 1024c-21.333 0-42.667-7.111-64-21.333-49.778-35.556-497.778-391.111-483.556-689.778 0-71.111 28.444-170.667 149.333-248.889 106.667-71.111 192-64 256-49.778 56.889 14.222 106.667 42.667 142.222 78.222 35.556-28.444 85.333-64 142.222-78.222s149.333-14.222 256 49.778c120.889 78.222 149.333 177.778 149.333 248.889 14.222 305.778-426.667 654.222-476.444 689.778-21.333 14.222-49.778 21.333-71.111 21.333zM334.222 213.333c-14.222 0-35.556 7.111-71.111 21.333-42.667 35.556-49.778 56.889-49.778 85.333-7.111 120.889 177.778 320 334.222 462.222 156.444-135.111 334.222-341.333 327.111-462.222 0-21.333-7.111-49.778-56.889-78.222-42.667-35.556-71.111-28.444-78.222-28.444-49.778 14.222-92.444 71.111-99.556 85.333-21.333 35.556-56.889 49.778-92.444 49.778v0c-35.556 0-71.111-21.333-92.444-49.778-14.222-21.333-56.889-71.111-99.556-85.333-7.111 0-14.222 0-21.333 0z"></path>
</symbol>
<symbol id="icon-login" viewBox="0 0 916 1024">
<title>login</title>
<path class="path1" d="M808.421 1024h-700.632c-59.284 0-107.789-48.505-107.789-107.789v-377.263c0-59.284 48.505-107.789 107.789-107.789h565.895v-242.526c0-59.284-48.505-107.789-107.789-107.789h-215.579c-59.284 0-107.789 48.505-107.789 107.789v161.684h-80.842v-161.684c0-105.095 83.537-188.632 188.632-188.632h215.579c105.095 0 188.632 83.537 188.632 188.632v242.526h53.895c59.284 0 107.789 48.505 107.789 107.789v377.263c0 59.284-48.505 107.789-107.789 107.789zM835.368 565.895c0-29.642-24.253-53.895-53.895-53.895h-646.737c-29.642 0-53.895 24.253-53.895 53.895v323.368c0 29.642 24.253 53.895 53.895 53.895h646.737c29.642 0 53.895-24.253 53.895-53.895v-323.368zM458.105 862.316c-75.453 0-134.737-59.284-134.737-134.737s59.284-134.737 134.737-134.737c75.453 0 134.737 59.284 134.737 134.737s-59.284 134.737-134.737 134.737zM458.105 673.684c-29.642 0-53.895 24.253-53.895 53.895s24.253 53.895 53.895 53.895c29.642 0 53.895-24.253 53.895-53.895s-24.253-53.895-53.895-53.895z"></path>
</symbol>
<symbol id="icon-logo" viewBox="0 0 1024 1024">
<title>logo</title>
<path fill="#96c00e" class="path1" d="M718.318 453.104c0 230.526-187.167 417.694-417.694 417.694-41.914 0-83.105-6.504-121.406-18.066 85.996 83.828 203.788 135.859 332.421 135.859 262.323 0 476.951-214.628 476.951-476.951s-214.628-476.951-476.951-476.951h-211.015c231.249 0.723 417.694 187.89 417.694 418.416z"></path>
<path fill="#1a1a1a" class="path2" d="M312.186 906.207c59.98 30.351 127.91 47.695 199.452 47.695 121.406 0 231.972-49.863 312.186-130.078s130.078-190.781 130.078-312.186c0-121.406-49.863-231.972-130.078-312.186-72.265-72.265-170.546-119.96-278.222-127.91 27.461 17.344 52.754 38.301 75.879 61.426 81.66 82.382 132.968 195.116 132.968 320.135s-50.586 238.476-132.968 320.135c-80.215 79.492-188.613 129.355-309.296 132.968zM70.097 281.835v230.526c0 119.96 48.418 229.804 127.187 310.018 15.176 4.336 30.351 7.227 46.25 10.117 18.066 2.891 36.855 4.336 56.367 4.336 96.113 0 184.277-35.41 251.483-93.945-13.008 2.168-26.016 3.613-39.746 3.613-64.316 0-122.851-26.016-164.765-67.929s-67.929-100.449-67.929-164.765 26.016-122.851 67.929-164.765 100.449-67.929 164.765-67.929c10.84 0 20.957 0.723 31.074 2.168-18.066-12.285-36.133-23.125-55.644-31.797-88.886-41.191-193.671-49.14-292.675-13.008l-124.296 43.359zM300.624 70.097h-127.91c-28.183 0-53.476 11.562-72.265 30.351s-30.351 44.082-30.351 72.265v34.687l100.449-36.855c117.793-42.637 241.366-33.965 346.151 15.176 41.914 19.512 80.937 45.527 115.625 77.324-16.621-29.629-37.578-56.367-61.426-80.215-68.652-69.375-164.765-112.734-270.272-112.734zM172.714 0h339.647c140.917 0 268.827 57.812 361.327 150.312 93.222 93.222 150.312 221.132 150.312 362.049s-57.812 268.827-150.312 361.327c-93.222 93.222-221.132 150.312-362.049 150.312s-268.827-57.812-361.327-150.312c-92.5-92.5-150.312-221.132-150.312-361.327v-339.647c0-47.695 19.512-91.054 50.586-122.128s74.433-50.586 122.128-50.586zM512.361 349.764c-44.805 0-85.273 18.066-114.902 47.695s-47.695 70.097-47.695 114.902c0 44.805 18.066 85.273 47.695 114.902s70.097 47.695 114.902 47.695c44.805 0 85.273-18.066 114.902-47.695s47.695-70.097 47.695-114.902c0-44.805-18.066-85.273-47.695-114.902s-70.097-47.695-114.902-47.695z"></path>
</symbol>
<symbol id="icon-mail" viewBox="0 0 1007 1024">
<title>mail</title>
<path class="path1" d="M485.966 216.949c78.102 0 147.525 34.712 199.593 95.458v0c8.678-34.712 26.034-52.068 43.39-52.068h8.678c34.712 0 43.39 34.712 43.39 43.39v425.22c0 26.034 26.034 43.39 43.39 26.034 60.746-69.424 138.847-355.797-43.39-520.678-164.881-164.881-390.508-138.847-512-52.068-121.492 95.458-208.271 303.729-130.169 494.644 86.78 208.271 329.763 277.695 477.288 208.271 78.102-34.712 112.814 78.102 34.712 112.814-112.814 52.068-442.576 43.39-590.102-234.305-104.136-190.915-95.458-520.678 173.559-685.559 208.271-130.169 485.966-95.458 650.847 86.78 173.559 190.915 164.881 546.712-8.678 685.559-78.102 60.746-190.915 0-190.915-86.78v-26.034c-52.068 52.068-121.492 86.78-199.593 86.78-147.525 0-286.373-147.525-286.373-303.729 0-164.881 138.847-303.729 286.373-303.729v0 0 0zM676.881 503.322c-8.678-121.492-86.78-190.915-190.915-190.915v0c-112.814 8.678-182.237 104.136-182.237 208.271 0 121.492 78.102 199.593 182.237 199.593 112.814 0 190.915-86.78 190.915-190.915v-26.034z"></path>
</symbol>
<symbol id="icon-od" viewBox="0 0 623 1024">
<title>od</title>
<path class="path1" d="M315.733 520.533c145.067 0 264.533-119.467 264.533-256 0-145.067-119.467-256-264.533-256-145.067-8.533-264.533 110.933-264.533 247.467 0 145.067 119.467 264.533 264.533 264.533zM315.733 128c68.267 0 128 59.733 128 128s-59.733 128-128 128c-76.8 0-136.533-51.2-136.533-128s59.733-128 136.533-128zM614.4 546.133c-17.067-25.6-59.733-51.2-110.933-8.533-76.8 59.733-187.733 59.733-187.733 59.733s-119.467 0-196.267-59.733c-51.2-42.667-93.867-17.067-110.933 8.533-25.6 51.2 0 76.8 68.267 119.467 59.733 34.133 136.533 51.2 179.2 51.2l-34.133 42.667c-59.733 59.733-119.467 110.933-153.6 153.6-25.6 25.6-25.6 59.733 0 85.333l8.533 8.533c25.6 25.6 59.733 25.6 85.333 0l153.6-153.6c59.733 59.733 119.467 110.933 153.6 153.6 25.6 25.6 59.733 25.6 85.333 0l8.533-8.533c25.6-25.6 25.6-59.733 0-85.333l-162.133-153.6-34.133-34.133c51.2-8.533 128-17.067 179.2-51.2 68.267-51.2 93.867-76.8 68.267-128z"></path>
</symbol>
<symbol id="icon-reply" viewBox="0 0 1161 1024">
<title>reply</title>
<path class="path1" d="M1153.707 471.040c13.653 34.133 6.827 81.92-20.48 109.227-6.827 6.827-13.653 6.827-20.48 13.653l-395.947 395.947c-40.96 40.96-102.4 40.96-143.36 0s-40.96-102.4 0-143.36l238.933-232.107h-709.973c-54.613 0-102.4-47.787-102.4-102.4v0c0-61.44 47.787-102.4 102.4-102.4h709.973l-232.107-238.933c-40.96-40.96-40.96-102.4 0-143.36s102.4-40.96 143.36 0l402.773 402.773c6.827 13.653 20.48 27.307 27.307 40.96z"></path>
</symbol>
<symbol id="icon-right" viewBox="0 0 1755 1024">
<title>right</title>
<path class="path1" d="M73.143 438.857h1433.6l-316.952-316.952c-29.257-29.257-29.257-73.143 0-102.4s73.143-29.257 102.4 0l429.105 429.105c4.876 4.876 9.752 4.876 14.629 9.752 14.629 14.629 24.381 39.010 19.505 63.39 0 4.876 0 9.752 0 9.752s0 4.876 0 4.876c-4.876 14.629-14.629 24.381-24.381 29.257l-433.981 433.981c-29.257 29.257-73.143 29.257-102.4 0s-29.257-73.143 0-102.4l316.952-316.952-1438.476 4.876c-39.010 0-73.143-34.133-73.143-73.143v0c0-43.886 34.133-73.143 73.143-73.143z"></path>
</symbol>
<symbol id="icon-search" viewBox="0 0 1036 1024">
<title>search</title>
<path class="path1" d="M1006.644 1000.859c-34.712 34.712-86.78 34.712-121.492 0l-109.921-109.921c-80.994 57.853-179.345 92.565-283.48 92.565-271.91 0-491.751-219.842-491.751-491.751s219.842-491.751 491.751-491.751c271.91 0 491.751 219.842 491.751 491.751 0 104.136-28.927 196.701-86.78 277.695l109.921 109.921c34.712 34.712 34.712 86.78 0 121.492zM491.751 173.559c-173.559 0-318.192 144.633-318.192 318.192s144.633 318.192 318.192 318.192c173.559 0 318.192-144.633 318.192-318.192s-144.633-318.192-318.192-318.192z"></path>
</symbol>
<symbol id="icon-sort" viewBox="0 0 991 1024">
<title>sort</title>
<path class="path1" d="M977.755 713.497l-297.29 300.594c-19.819 19.819-49.548 19.819-69.368 0 0 0 0 0 0 0-9.91-9.91-13.213-19.819-13.213-36.335v-627.613c-3.303-29.729 19.819-52.852 46.245-52.852s49.548 23.123 49.548 49.548v512l214.71-214.71c19.819-19.819 49.548-19.819 69.368 0s19.819 49.548 0 69.368zM346.839 693.677c-26.426 0-49.548-19.819-49.548-49.548v-475.665l-214.71 214.71c-19.819 19.819-49.548 19.819-69.368 0s-19.819-49.548 0-69.368l297.29-300.594c19.819-19.819 49.548-19.819 69.368 0 0 0 0 0 0 0 9.91 9.91 16.516 23.123 16.516 36.335v594.581c0 29.729-23.123 49.548-49.548 49.548z"></path>
</symbol>
<symbol id="icon-sort_down" viewBox="0 0 536 1024">
<title>sort_down</title>
<path class="path1" d="M73.143 0c39.010 0 73.143 34.133 73.143 73.143v707.048l268.19-268.19c29.257-29.257 73.143-29.257 102.4 0s29.257 73.143 0 102.4l-390.095 394.971c0 0-4.876 4.876-4.876 4.876-4.876 0-4.876 4.876-9.752 4.876-9.752 0-14.629 0-24.381 4.876 0 0 0 0-4.876 0-9.752 0-14.629 0-24.381 0 0 0-4.876 0-4.876 0-4.876 0-9.752-4.876-14.629-4.876-4.876-4.876-9.752-4.876-14.629-9.752 0 0 0 0-4.876 0 0 0 0 0 0 0-9.752-19.505-19.505-39.010-19.505-58.514v-877.714c0-39.010 34.133-73.143 73.143-73.143z"></path>
</symbol>
<symbol id="icon-sort_m" viewBox="0 0 945 1024">
<title>sort_m</title>
<path class="path1" d="M929.477 732.554l-275.692 279.631c-23.631 23.631-59.077 23.631-82.708 0 0 0 0 0 0 0-11.815-11.815-15.754-23.631-15.754-43.323v-669.538c-3.938-35.446 23.631-63.015 55.138-63.015s59.077 27.569 59.077 59.077v531.692l177.231-177.231c23.631-23.631 59.077-23.631 82.708 0s23.631 59.077 0 82.708zM334.769 748.308v0c-31.508 0-59.077-23.631-59.077-59.077v-488.369l-177.231 177.231c-23.631 23.631-59.077 23.631-82.708 0s-23.631-59.077 0-82.708l275.692-279.631c23.631-19.692 63.015-19.692 82.708 0 0 0 0 0 0 0 11.815 11.815 19.692 27.569 19.692 43.323v630.154c0 35.446-27.569 59.077-59.077 59.077z"></path>
</symbol>
<symbol id="icon-sort_up" viewBox="0 0 536 1024">
<title>sort_up</title>
<path class="path1" d="M463.238 1024c-39.010 0-73.143-34.133-73.143-73.143v-707.048l-268.19 268.19c-29.257 29.257-73.143 29.257-102.4 0-24.381-24.381-24.381-73.143 0-97.524l390.095-394.971c0 0 4.876-4.876 4.876-4.876 4.876 0 4.876-4.876 9.752-4.876 9.752-4.876 14.629-4.876 24.381-9.752 0 0 0 0 4.876 0 9.752 0 14.629 0 24.381 0 0 0 4.876 0 4.876 0 4.876 0 9.752 4.876 14.629 4.876 4.876 4.876 9.752 4.876 14.629 9.752 0 0 0 0 4.876 0 0 0 0 0 0 0 9.752 19.505 19.505 39.010 19.505 58.514v877.714c0 39.010-34.133 73.143-73.143 73.143z"></path>
</symbol>
<symbol id="icon-tw" viewBox="0 0 1195 1024">
<title>tw</title>
<path class="path1" d="M1194.667 119.467v0 0zM827.733 0c-136.533 0-247.467 119.467-247.467 256 0 17.067 0 42.667 8.533 59.733-204.8-8.533-384-110.933-503.467-264.533-25.6 34.133-34.133 76.8-34.133 128 0 93.867 42.667 170.667 110.933 213.333-42.667 0-76.8-17.067-110.933-34.133 0 0 0 0 0 0 0 128 85.333 230.4 196.267 256-25.6 8.533-42.667 8.533-68.267 8.533-17.067 0-34.133 0-42.667-8.533 25.6 110.933 119.467 187.733 230.4 187.733-85.333 68.267-187.733 110.933-307.2 110.933-17.067 0-42.667 0-59.733 0 110.933 68.267 238.933 110.933 375.467 110.933 452.267 0 699.733-392.533 699.733-733.867 0-8.533 0-25.6 0-34.133 51.2-34.133 85.333-85.333 119.467-136.533-42.667 17.067-93.867 34.133-136.533 42.667 51.2-34.133 85.333-85.333 110.933-145.067-51.2 25.6-102.4 51.2-153.6 59.733-51.2-42.667-119.467-76.8-187.733-76.8z"></path>
</symbol>
<symbol id="icon-up" viewBox="0 0 597 1024">
<title>up</title>
<path class="path1" d="M585.956 327.111c-17.067 17.067-42.667 17.067-59.733 0l-184.889-182.044v836.267c0 22.756-19.911 42.667-42.667 42.667v0c-22.756 0-42.667-19.911-42.667-42.667v-836.267l-184.889 184.889c-17.067 17.067-42.667 17.067-59.733 0s-17.067-42.667 0-59.733l250.311-250.311c2.844-2.844 2.844-5.689 5.689-8.533 8.533-8.533 22.756-11.378 36.978-11.378 2.844 0 5.689 0 5.689 0s2.844 0 2.844 0c8.533 2.844 14.222 8.533 17.067 14.222l253.156 253.156c17.067 17.067 17.067 45.511 2.844 59.733z"></path>
</symbol>
<symbol id="icon-view" viewBox="0 0 1161 1024">
<title>view</title>
<path class="path1" d="M894.293 812.373l27.307 27.307c40.96 40.96 40.96 109.227 0 150.187s-109.227 40.96-150.187 0l-197.973-197.973c-34.133-40.96-34.133-109.227 6.827-150.187 6.827-6.827 20.48-13.653 34.133-20.48v-6.827h34.133c0 0 0 0 6.827 0h197.973c54.613 0 102.4-47.787 102.4-102.4 0-47.787-27.307-81.92-68.267-95.573v-13.653c-13.653 0-20.48 6.827-34.133 6.827-54.613 0-102.4-47.787-102.4-102.4s47.787-102.4 102.4-102.4c13.653 0 20.48 0 34.133 6.827v-6.827c150.187 20.48 273.067 143.36 273.067 300.373 0 163.84-116.053 286.72-266.24 307.2zM546.133 402.773v0l-34.133 6.827c0 0 0 0-6.827 0h-197.973c-54.613 0-102.4 47.787-102.4 102.4 0 47.787 27.307 81.92 68.267 95.573v13.653c13.653-6.827 20.48-6.827 34.133-6.827 54.613 0 102.4 47.787 102.4 102.4s-47.787 102.4-102.4 102.4c-13.653 0-20.48 0-34.133-6.827v6.827c-150.187-20.48-273.067-143.36-273.067-300.373s116.053-279.893 266.24-300.373l-27.307-40.96c-40.96-40.96-40.96-102.4 0-143.36s109.227-40.96 150.187 0l197.973 197.973c40.96 40.96 40.96 109.227 0 150.187-13.653 6.827-27.307 13.653-40.96 20.48z"></path>
</symbol>
<symbol id="icon-vk" viewBox="0 0 868 1024">
<title>vk</title>
<path class="path1" d="M807.051 555.39c-43.39-43.39-95.458-69.424-164.881-86.78v0c43.39-17.356 86.78-52.068 112.814-86.78 26.034-43.39 43.39-86.78 43.39-138.847 0-43.39-8.678-86.78-26.034-112.814-17.356-34.712-52.068-60.746-86.78-78.102-43.39-26.034-78.102-34.712-121.492-43.39s-104.136-8.678-182.237-8.678h-381.831v1041.356h433.898c78.102 0 138.847-8.678 182.237-17.356 52.068-17.356 95.458-34.712 130.169-69.424 34.712-26.034 60.746-60.746 78.102-95.458 17.356-43.39 34.712-86.78 34.712-138.847 8.678-69.424-8.678-121.492-52.068-164.881zM503.322 355.797c-8.678 17.356-17.356 26.034-43.39 43.39-17.356 8.678-34.712 8.678-60.746 8.678-17.356 0-52.068 0-95.458 0h-34.712v-216.949h17.356c52.068 0 86.78 0 112.814 0s43.39 8.678 60.746 8.678c17.356 8.678 34.712 17.356 43.39 34.712 8.678 26.034 17.356 43.39 17.356 60.746 0 26.034-8.678 43.39-17.356 60.746zM572.746 781.017c-17.356 26.034-34.712 34.712-60.746 52.068-26.034 8.678-52.068 17.356-78.102 17.356s-78.102 0-147.525 0h-17.356v-260.339h52.068c52.068 0 86.78 0 112.814 0s52.068 0 69.424 8.678c26.034 8.678 52.068 26.034 60.746 43.39 17.356 17.356 17.356 43.39 17.356 78.102 8.678 26.034 0 43.39-8.678 60.746z"></path>
</symbol>
<symbol id="icon-ya" viewBox="0 0 486 1024">
<title>ya</title>
<path class="path1" d="M473.6 0h-153.6c-153.6 0-281.6 115.2-281.6 339.2 0 134.4 64 236.8 172.8 281.6l-211.2 384c-6.4 12.8 0 19.2 12.8 19.2h96c6.4 0 12.8 0 19.2-6.4l192-371.2h64v371.2c0 0 6.4 6.4 12.8 6.4h83.2c6.4 0 12.8-6.4 12.8-12.8v-998.4c-6.4-6.4-6.4-12.8-19.2-12.8zM384 556.8h-57.6c-89.6 0-179.2-64-179.2-230.4 0-172.8 83.2-243.2 166.4-243.2h70.4v473.6z"></path>
</symbol>
</defs>
</svg>
